PathFileType	4	(X/Y/Z)	/Users/itak/Documents/Research/Walk-IL/dataset/trc/00553_00009.trc
DataRate	CameraRate	NumFrames	NumMarkers	Units	OrigDataRate	OrigDataStartFrame	OrigNumFrames
100.000000	100.000000	4	53	mm	100.000000	60	485
Frame#	Time	RPSI			LPSI			L3			STRN			T10			C7			CLAV			RBAK			LBAK			LSHO			LUPA			LAEL			LAOL			LWTS			LWPS			LFRA			LIFD			LHPS			LHTS			RSHO			RUPA			RAEL			RAOL			RWTS			RWPS			RFRA			RIFD			RHTS			RHPS			RBHD			LFHD			RFHD			LBHD			LHIP			RHIP			RASI			LASI			LKNE			LTHI			LANK			LTIP			LTOE			LMT1			LMT5			LHEE			RKNE			RTHI			RANK			RTIP			RTOE			RMT1			RMT5			RHEE			
		X1	Y1	Z1	X2	Y2	Z2	X3	Y3	Z3	X4	Y4	Z4	X5	Y5	Z5	X6	Y6	Z6	X7	Y7	Z7	X8	Y8	Z8	X9	Y9	Z9	X10	Y10	Z10	X11	Y11	Z11	X12	Y12	Z12	X13	Y13	Z13	X14	Y14	Z14	X15	Y15	Z15	X16	Y16	Z16	X17	Y17	Z17	X18	Y18	Z18	X19	Y19	Z19	X20	Y20	Z20	X21	Y21	Z21	X22	Y22	Z22	X23	Y23	Z23	X24	Y24	Z24	X25	Y25	Z25	X26	Y26	Z26	X27	Y27	Z27	X28	Y28	Z28	X29	Y29	Z29	X30	Y30	Z30	X31	Y31	Z31	X32	Y32	Z32	X33	Y33	Z33	X34	Y34	Z34	X35	Y35	Z35	X36	Y36	Z36	X37	Y37	Z37	X38	Y38	Z38	X39	Y39	Z39	X40	Y40	Z40	X41	Y41	Z41	X42	Y42	Z42	X43	Y43	Z43	X44	Y44	Z44	X45	Y45	Z45	X46	Y46	Z46	X47	Y47	Z47	X48	Y48	Z48	X49	Y49	Z49	X50	Y50	Z50	X51	Y51	Z51	X52	Y52	Z52	X53	Y53	Z53	

61	0.6	-986.7567749023438	1017.152587890625	295.7429809570312	-980.3931274414062	1019.976501464844	162.3204650878906	-979.9690551757812	1098.687744140625	224.3555297851562	-763.6058959960938	1298.918334960938	220.5831604003906	-999.9464111328125	1223.638305664062	224.3554229736328	-971.0454711914062	1499.412841796875	239.3185424804688	-790.6593627929688	1409.515625	222.0116271972656	-1030.721801757812	1369.392700195312	324.5773315429688	-1004.384216308594	1444.171997070312	148.9735717773438	-911.9124755859375	1475.297119140625	64.33283233642578	-915.8125610351562	1349.275268554688	-14.78432273864746	-874.8327026367188	1128.600830078125	-38.08018493652344	-961.2478637695312	1113.051147460938	12.4534273147583	-761.8671264648438	894.6427612304688	10.29161262512207	-803.14013671875	867.836181640625	-61.70157241821289	-844.6118774414062	1044.54248046875	-44.4049186706543	-761.9310913085938	721.4363403320312	4.116982936859131	-789.9623413085938	808.7056274414062	-52.57453536987305	-738.8463134765625	818.1983032226562	-9.825637817382812	-904.6165771484375	1463.19091796875	391.1958618164062	-918.007568359375	1396.536499023438	458.2620849609375	-904.7750854492188	1106.82373046875	502.5217590332031	-959.384033203125	1087.834228515625	476.1465148925781	-764.1840209960938	891.5076293945312	452.0935974121094	-804.5905151367188	868.8096923828125	521.3345336914062	-890.679443359375	1051.4228515625	507.9451904296875	-747.5120849609375	717.6340942382812	456.010498046875	-733.3214111328125	800.436279296875	464.4487915039062	-785.157470703125	794.5211791992188	516.050537109375	-906.6061401367188	1683.725341796875	294.0461730957031	-744.769287109375	1718.215087890625	168.5351104736328	-770.9060668945312	1715.329467773438	309.7616271972656	-869.4266967773438	1686.141357421875	132.5067749023438	-855.2737426757812	941.5142822265625	32.20562362670898	-870.1596069335938	941.1415405273438	421.8703002929688	-779.8798828125	968.7883911132812	365.150390625	-773.7836303710938	961.4424438476562	87.20889282226562	-861.5859985351562	492.83349609375	98.57884979248047	-846.4486083984375	657.5245361328125	57.82392883300781	-953.172119140625	32.55084228515625	111.8374557495117	-933.0054321289062	250.7107849121094	95.02094268798828	-743.2095336914062	38.50484085083008	169.5763244628906	-814.7708740234375	41.27645874023438	205.5294647216797	-830.4600219726562	34.59872055053711	98.40795135498047	-1022.870361328125	35.80264663696289	166.9373016357422	-875.025634765625	496.5598754882812	378.4606323242188	-839.5595703125	785.1805419921875	419.6614379882812	-975.994873046875	36.6000862121582	365.1213073730469	-884.76611328125	354.8074035644531	367.5089416503906	-754.404052734375	39.34352111816406	336.2122497558594	-815.266845703125	41.50388717651367	292.3363037109375	-842.8889770507812	35.3254508972168	393.7420349121094	-1028.191162109375	32.88232421875	306.0223999023438	
62	0.61	-986.9844360351562	1017.159057617188	295.5455627441406	-980.6315307617188	1019.986511230469	162.1244506835938	-980.2262573242188	1098.738159179688	224.1033020019531	-763.77734375	1298.936767578125	220.2550201416016	-1000.188842773438	1223.664916992188	224.1258239746094	-971.120849609375	1499.450927734375	239.1712493896484	-790.8106079101562	1409.490356445312	221.7756042480469	-1030.819702148438	1369.443359375	324.4665832519531	-1004.552673339844	1444.244262695312	148.8787231445312	-912.1474609375	1475.35205078125	64.17899322509766	-916.1637573242188	1349.348266601562	-14.97323608398438	-875.5164794921875	1128.569213867188	-38.36439895629883	-961.908203125	1113.211791992188	12.35526561737061	-763.3351440429688	894.2333374023438	9.668803215026855	-804.7605590820312	867.6012573242188	-62.29116439819336	-845.61181640625	1044.431396484375	-44.74359893798828	-763.4744262695312	721.0065307617188	3.423179388046265	-791.7958984375	808.4685668945312	-53.33559036254883	-740.4865112304688	817.741455078125	-10.51963043212891	-904.6065673828125	1463.194091796875	391.0707092285156	-918.0238647460938	1396.524291992188	458.1112060546875	-904.870361328125	1106.806762695312	502.3546142578125	-959.513916015625	1087.868530273438	475.9580993652344	-764.4883422851562	891.3158569335938	451.8799133300781	-804.8753662109375	868.6907958984375	521.1182250976562	-890.8348388671875	1051.373291015625	507.788330078125	-748.0142211914062	717.4147338867188	455.842041015625	-733.62060546875	800.2734375	464.1534729003906	-785.5462036132812	794.39306640625	515.8189086914062	-906.5426635742188	1683.789306640625	293.876220703125	-744.783935546875	1718.14013671875	168.2500610351562	-770.889404296875	1715.3046875	309.4563598632812	-869.5175170898438	1686.13818359375	132.3180084228516	-855.62255859375	941.527099609375	31.95277214050293	-870.2722778320312	941.1400146484375	421.6153259277344	-779.9844360351562	968.818359375	364.8143920898438	-774.0670776367188	961.4100341796875	86.9573974609375	-861.7670288085938	492.8353576660156	98.41128540039062	-846.8462524414062	657.65673828125	57.4596061706543	-953.182861328125	32.54314804077148	111.828369140625	-933.0574951171875	250.67626953125	94.93028259277344	-743.22216796875	38.51084136962891	169.5648498535156	-814.7998046875	41.28452301025391	205.5336608886719	-830.466552734375	34.59285736083984	98.39310455322266	-1022.883117675781	35.78256988525391	166.9211273193359	-875.0404052734375	496.5994262695312	378.350341796875	-839.7042236328125	785.2481689453125	419.4249267578125	-975.9864501953125	36.61192321777344	365.1163635253906	-884.7577514648438	354.8178100585938	367.3937683105469	-754.402099609375	39.34684371948242	336.2136535644531	-815.2620849609375	41.50327682495117	292.3381652832031	-842.888671875	35.33002471923828	393.7441101074219	-1028.187255859375	32.88946533203125	306.0198974609375	
63	0.62	-987.2116088867188	1017.175048828125	295.3468017578125	-980.85986328125	1019.99853515625	161.9119415283203	-980.470947265625	1098.791625976562	223.8407592773438	-763.9261474609375	1298.953369140625	219.93212890625	-1000.410034179688	1223.700561523438	223.8971252441406	-971.18115234375	1499.489990234375	239.0213928222656	-790.9287109375	1409.464965820312	221.533935546875	-1030.90087890625	1369.498168945312	324.3554382324219	-1004.695922851562	1444.31591796875	148.7806243896484	-912.3510131835938	1475.412963867188	64.02830505371094	-916.4923095703125	1349.420166015625	-15.17042827606201	-876.2035522460938	1128.546752929688	-38.65735626220703	-962.5712890625	1113.38232421875	12.265869140625	-764.8810424804688	893.78466796875	9.062042236328125	-806.4171752929688	867.3568115234375	-62.88425445556641	-846.6163940429688	1044.306640625	-45.0865592956543	-765.0731811523438	720.566650390625	2.72585916519165	-793.6619262695312	808.2249755859375	-54.10414123535156	-742.1818237304688	817.2745361328125	-11.21733570098877	-904.5728759765625	1463.200805664062	390.9442749023438	-918.0330810546875	1396.51513671875	457.9634704589844	-904.9617919921875	1106.796997070312	502.1913146972656	-959.6414184570312	1087.905151367188	475.7806091308594	-764.7866821289062	891.13330078125	451.6853637695312	-805.1800537109375	868.5838012695312	520.9244384765625	-890.986328125	1051.336059570312	507.6334533691406	-748.52783203125	717.1975708007812	455.6956481933594	-733.9148559570312	800.105712890625	463.8519592285156	-785.943115234375	794.272216796875	515.6211547851562	-906.4572143554688	1683.854248046875	293.7159423828125	-744.7786254882812	1718.069213867188	167.9597320556641	-770.8298950195312	1715.27294921875	309.1522216796875	-869.592041015625	1686.1376953125	132.1240386962891	-855.9571533203125	941.5331420898438	31.69587326049805	-870.3896484375	941.1485595703125	421.3527221679688	-780.0653686523438	968.8432006835938	364.4595947265625	-774.3365478515625	961.3707275390625	86.70169067382812	-861.9697265625	492.8374328613281	98.2398681640625	-847.2208251953125	657.7684936523438	57.12257385253906	-953.1961669921875	32.5345344543457	111.8186950683594	-933.1052856445312	250.6484985351562	94.83422088623047	-743.2335815429688	38.51607513427734	169.5543518066406	-814.843994140625	41.28755569458008	205.5458984375	-830.4750366210938	34.58489990234375	98.37355804443359	-1022.897155761719	35.76155471801758	166.9063415527344	-875.0564575195312	496.6361083984375	378.2433166503906	-839.8634033203125	785.31982421875	419.1927795410156	-975.979248046875	36.6246452331543	365.1090698242188	-884.7376708984375	354.821533203125	367.2784118652344	-754.3984985351562	39.35048675537109	336.2152404785156	-815.2549438476562	41.50265502929688	292.3402709960938	-842.8880004882812	35.33411026000977	393.7467346191406	-1028.18310546875	32.89844131469727	306.0163879394531	
64	0.63	-987.4340209960938	1017.200256347656	295.1378479003906	-981.072509765625	1020.01220703125	161.6775817871094	-980.6986694335938	1098.843872070312	223.5695495605469	-764.044677734375	1298.968872070312	219.6199035644531	-1000.611694335938	1223.744506835938	223.6722412109375	-971.227294921875	1499.528686523438	238.8704376220703	-791.0138549804688	1409.440185546875	221.2876281738281	-1030.9677734375	1369.556884765625	324.2447814941406	-1004.814758300781	1444.386108398438	148.6789245605469	-912.5213623046875	1475.477416992188	63.8820915222168	-916.802978515625	1349.49072265625	-15.37672805786133	-876.8961791992188	1128.538208007812	-38.95553588867188	-963.2357177734375	1113.563720703125	12.18308162689209	-766.4707641601562	893.3026733398438	8.457842826843262	-808.102294921875	867.1101684570312	-63.48469924926758	-847.6204223632812	1044.171997070312	-45.43437194824219	-766.70166015625	720.1287231445312	2.008795261383057	-795.5518798828125	807.9715576171875	-54.87175750732422	-743.9068603515625	816.8095092773438	-11.93474578857422	-904.5197143554688	1463.2080078125	390.8135681152344	-918.034912109375	1396.507690429688	457.8169555664062	-905.0491333007812	1106.793090820312	502.0299377441406	-959.7678833007812	1087.9423828125	475.6145324707031	-765.091552734375	890.9592895507812	451.5152282714844	-805.5047607421875	868.487548828125	520.7539672851562	-891.1312255859375	1051.311767578125	507.474365234375	-749.0496215820312	716.98681640625	455.5644226074219	-734.2080078125	799.92822265625	463.5546569824219	-786.3408813476562	794.158447265625	515.462158203125	-906.346435546875	1683.922729492188	293.5675659179688	-744.74951171875	1718.002197265625	167.6635131835938	-770.7200927734375	1715.23388671875	308.8560180664062	-869.6431274414062	1686.140380859375	131.9245758056641	-856.2676391601562	941.5384521484375	31.44071388244629	-870.5260620117188	941.1710815429688	421.0881652832031	-780.123291015625	968.8632202148438	364.0956115722656	-774.5819091796875	961.3305053710938	86.44774627685547	-862.1856079101562	492.8423767089844	98.06686401367188	-847.537841796875	657.8394775390625	56.83609390258789	-953.210693359375	32.52535247802734	111.8076553344727	-933.1504516601562	250.6243286132812	94.73418426513672	-743.2413330078125	38.52022171020508	169.5457458496094	-814.8963623046875	41.2885627746582	205.5619659423828	-830.4849243164062	34.57429122924805	98.35060119628906	-1022.91015625	35.74166107177734	166.894775390625	-875.0751953125	496.6688842773438	378.1377258300781	-840.035888671875	785.3900146484375	418.9688720703125	-975.9741821289062	36.63832473754883	365.0992736816406	-884.7041625976562	354.8192138671875	367.1586608886719	-754.3939819335938	39.3542366027832	336.216552734375	-815.2468872070312	41.50201416015625	292.3417358398438	-842.8870849609375	35.33738327026367	393.748779296875	-1028.1787109375	32.9083251953125	306.0115356445312	
